<?xml version="1.0"?>
<svg xmlns="http://www.w3.org/2000/svg" xmlns:xlink="http://www.w3.org/1999/xlink" version="1.1" id="Capa_1" x="0px" y="0px" viewBox="0 0 512 512" style="enable-background:new 0 0 512 512;" xml:space="preserve" width="512px" height="512px"><g><g>
	<path d="M191.733,158.533c-31.596,0-57.3,25.705-57.3,57.3c0,31.595,25.705,57.3,57.3,57.3c31.595,0,57.3-25.705,57.3-57.3   C249.033,184.238,223.329,158.533,191.733,158.533z M215.833,230.833c-8.279,0-15-6.721-15-15s6.721-15,15-15s15,6.721,15,15   S224.112,230.833,215.833,230.833z" data-original="#000000" class="active-path" data-old_color="#ffffff" fill="#ffffff"/>
	<path d="M399.533,158.533c-31.595,0-57.3,25.705-57.3,57.3c0,31.595,25.705,57.3,57.3,57.3c31.596,0,57.3-25.705,57.3-57.3   C456.833,184.238,431.129,158.533,399.533,158.533z M423.633,230.833c-8.279,0-15-6.721-15-15s6.721-15,15-15   c8.279,0,15,6.721,15,15S431.912,230.833,423.633,230.833z" data-original="#000000" class="active-path" data-old_color="#ffffff" fill="#ffffff"/>
	<path d="M399.533,303.133c-48.137,0-87.3-39.163-87.3-87.3c0-48.138,39.163-87.3,87.3-87.3c25.286,0,48.091,10.81,64.049,28.046   C437.796,66.203,354.526,0,256,0C136.825,0,40.167,96.783,40.167,215.833v241c0,30.419,24.748,55.167,55.167,55.167   c30.419,0,55.167-24.748,55.167-55.167c0-13.877,11.29-25.167,25.167-25.167s25.167,11.29,25.167,25.167   C200.833,487.252,225.581,512,256,512s55.167-24.748,55.167-55.167c0-13.877,11.29-25.167,25.167-25.167   s25.167,11.29,25.167,25.167c0,30.419,24.748,55.167,55.167,55.167c30.419,0,55.167-24.748,55.167-55.167V264.711   C456.12,287.879,429.575,303.133,399.533,303.133z M191.733,303.133c-48.138,0-87.3-39.163-87.3-87.3   c0-48.138,39.163-87.3,87.3-87.3c48.137,0,87.3,39.163,87.3,87.3C279.033,263.971,239.871,303.133,191.733,303.133z" data-original="#000000" class="active-path" data-old_color="#ffffff" fill="#ffffff"/>
</g></g> </svg>
